<?xml version="1.0" encoding="UTF-8" standalone="no"?>
<!-- Created with Inkscape (http://www.inkscape.org/) -->

<svg
   xmlns:dc="http://purl.org/dc/elements/1.1/"
   xmlns:cc="http://creativecommons.org/ns#"
   xmlns:rdf="http://www.w3.org/1999/02/22-rdf-syntax-ns#"
   xmlns:svg="http://www.w3.org/2000/svg"
   xmlns="http://www.w3.org/2000/svg"
   xmlns:sodipodi="http://sodipodi.sourceforge.net/DTD/sodipodi-0.dtd"
   xmlns:inkscape="http://www.inkscape.org/namespaces/inkscape"
   width="96"
   height="96"
   viewBox="0 0 25.399999 25.400001"
   version="1.1"
   id="svg8"
   sodipodi:docname="facebook-white.svg"
   inkscape:version="0.92.4 (33fec40, 2019-01-16)">
  <defs
     id="defs2" />
  <sodipodi:namedview
     id="base"
     pagecolor="#ffffff"
     bordercolor="#666666"
     borderopacity="1.0"
     inkscape:pageopacity="0.0"
     inkscape:pageshadow="2"
     inkscape:zoom="3.440833"
     inkscape:cx="36.611917"
     inkscape:cy="46.138323"
     inkscape:document-units="px"
     inkscape:current-layer="layer1"
     showgrid="false"
     units="px"
     inkscape:snap-bbox="true"
     inkscape:bbox-paths="false"
     inkscape:bbox-nodes="false"
     inkscape:snap-bbox-midpoints="false"
     inkscape:snap-object-midpoints="true"
     inkscape:snap-page="true"
     inkscape:window-width="1920"
     inkscape:window-height="1023"
     inkscape:window-x="0"
     inkscape:window-y="28"
     inkscape:window-maximized="1" />
  <metadata
     id="metadata5">
    <rdf:RDF>
      <cc:Work
         rdf:about="">
        <dc:format>image/svg+xml</dc:format>
        <dc:type
           rdf:resource="http://purl.org/dc/dcmitype/StillImage" />
        <dc:title></dc:title>
      </cc:Work>
    </rdf:RDF>
  </metadata>
  <g
     inkscape:label="Capa 1"
     inkscape:groupmode="layer"
     id="layer1"
     transform="translate(0,-271.59998)">
    <rect
       ry="5"
       rx="5"
       y="87.19342"
       x="-396.89523"
       height="86.060791"
       width="88.539001"
       id="rect817"
       style="opacity:0;fill:#ffffff;fill-opacity:1;stroke:#000000;stroke-width:5;stroke-linecap:butt;stroke-miterlimit:4;stroke-dasharray:none;stroke-opacity:1" />
    <path
       style="opacity:1;fill:#ffffff;fill-opacity:1;stroke:#000000;stroke-width:0;stroke-linecap:butt;stroke-linejoin:round;stroke-miterlimit:4;stroke-dasharray:none;stroke-opacity:1"
       d="m 3.7102651,272.06135 c -1.75895,0 -3.175,1.41605 -3.175,3.175 v 18.2578 c 0,1.75895 1.41605,3.175 3.175,3.175 H 12.873013 V 285.07451 H 9.9651803 v -2.31769 h 2.9078327 v -1.87069 c 0,-1.18083 0.116105,-2.05801 0.347782,-2.63188 0.317032,-0.77251 0.871919,-1.39614 1.664498,-1.87068 0.804773,-0.48558 1.926333,-0.72812 3.365169,-0.72812 0.926708,0 1.950876,0.099 3.072681,0.29765 l -0.49351,2.59933 c -0.682838,-0.11036 -1.329223,-0.16588 -1.9389,-0.16588 -0.999869,0 -1.707254,0.19355 -2.121834,0.5798 -0.41458,0.38626 -0.621668,1.10891 -0.621668,2.16835 v 1.62212 h 3.786333 v 2.31769 h -3.786333 v 11.59464 h 5.820834 c 1.75895,0 3.175,-1.41605 3.175,-3.175 v -18.2578 c 0,-1.75895 -1.41605,-3.175 -3.175,-3.175 z"
       id="rect988"
       inkscape:connector-curvature="0" />
  </g>
</svg>
