<?xml version="1.0" encoding="UTF-8" standalone="no"?>
<!-- Created with Inkscape (http://www.inkscape.org/) -->

<svg
   xmlns:dc="http://purl.org/dc/elements/1.1/"
   xmlns:cc="http://creativecommons.org/ns#"
   xmlns:rdf="http://www.w3.org/1999/02/22-rdf-syntax-ns#"
   xmlns:svg="http://www.w3.org/2000/svg"
   xmlns="http://www.w3.org/2000/svg"
   xmlns:xlink="http://www.w3.org/1999/xlink"
   xmlns:sodipodi="http://sodipodi.sourceforge.net/DTD/sodipodi-0.dtd"
   xmlns:inkscape="http://www.inkscape.org/namespaces/inkscape"
   sodipodi:docname="login.svg"
   inkscape:version="0.92.3 (2405546, 2018-03-11)"
   id="svg8"
   version="1.1"
   viewBox="0 0 507.99998 396.87501"
   height="1500"
   width="1920">
  <sodipodi:namedview
     units="px"
     inkscape:snap-bbox="true"
     inkscape:snap-global="false"
     inkscape:window-maximized="1"
     inkscape:window-y="28"
     inkscape:window-x="0"
     inkscape:window-height="1023"
     inkscape:window-width="1920"
     inkscape:snap-page="true"
     showgrid="false"
     inkscape:current-layer="layer2"
     inkscape:document-units="px"
     inkscape:cy="712.69073"
     inkscape:cx="698.94464"
     inkscape:zoom="0.51559869"
     inkscape:pageshadow="2"
     inkscape:pageopacity="0.0"
     borderopacity="1.0"
     bordercolor="#666666"
     pagecolor="#ffffff"
     id="base" />
  <defs
     id="defs2">
    <linearGradient
       inkscape:collect="always"
       id="linearGradient867">
      <stop
         style="stop-color:#00aa88;stop-opacity:1;"
         offset="0"
         id="stop863" />
      <stop
         style="stop-color:#d7f4d7;stop-opacity:1"
         offset="1"
         id="stop865" />
    </linearGradient>
    <inkscape:perspective
       sodipodi:type="inkscape:persp3d"
       inkscape:vp_x="-239.00591 : 229.34024 : 1"
       inkscape:vp_y="0 : 1000 : 0"
       inkscape:vp_z="1.924264 : 564.65149 : 1"
       inkscape:persp3d-origin="-117.13491 : 165.78107 : 1"
       id="perspective4772" />
    <linearGradient
       inkscape:collect="always"
       xlink:href="#linearGradient867"
       id="linearGradient869"
       x1="72.740051"
       y1="25.455938"
       x2="173.01447"
       y2="280.26096"
       gradientUnits="userSpaceOnUse" />
    <pattern
       patternUnits="userSpaceOnUse"
       width="285.90972"
       height="277.13549"
       patternTransform="matrix(0.26458333,0,0,0.26458333,566.15049,116.30582)"
       id="pattern15493">
      <g
         style="stroke-width:0.79374999;stroke-miterlimit:4;stroke-dasharray:none"
         transform="matrix(3.7795276,0,0,3.7795276,-1119.4385,-889.40963)"
         id="g15491">
        <path
           transform="translate(0,99.875046)"
           d="m 310.45021,208.71644 3.79385,-26.18492 15.61698,-15.10517 16.72106,-7.40232 14.15809,3.52629 10.92391,-5.09006 -10.92391,5.09006 -14.15809,-3.52629 6.9429,-11.1567 -0.009,-10.73592 0.009,10.73592 -6.9429,11.1567 -16.72106,7.40232 5.83912,-15.45466 -5.83912,15.45466 -15.61698,15.10517 -7.64579,-19.32971 -0.27032,-13.6076 7.17001,-9.87388 10.25392,-3.90148 -10.25392,3.90148 -7.17001,9.87388 -4.87704,-10.22384 4.87704,10.22384 0.27032,13.6076 -9.59089,-6.46623 9.59089,6.46623 7.64579,19.32971 -3.79385,26.18492"
           style="display:inline;fill:none;fill-opacity:1;stroke:#000000;stroke-width:0.79374999;stroke-linecap:butt;stroke-linejoin:miter;stroke-miterlimit:4;stroke-dasharray:none;stroke-opacity:1"
           id="path15180"
           inkscape:connector-curvature="0" />
        <path
           id="path15429"
           style="fill:none;fill-opacity:1;stroke:#000000;stroke-width:0.79374999;stroke-linecap:butt;stroke-linejoin:miter;stroke-miterlimit:4;stroke-dasharray:none;stroke-opacity:1"
           d="m 311.93895,285.54585 7.72188,-12.80066 10.20021,-5.44379 8.81044,-0.74159 5.64856,2.13076 2.63638,3.97568 -2.63638,-3.97568 4.32574,-0.81484 2.26281,-2.27276 -2.26281,2.27276 -4.32574,0.81484 -5.64856,-2.13076 4.34786,-2.70738 3.39823,-0.28124 -3.39823,0.28124 2.62589,-3.58314 3.24078,-1.57032 -3.24078,1.57032 0.58537,-3.24249 -0.58537,3.24249 -2.62589,3.58314 -4.34786,2.70738 -8.81044,0.74159 5.03456,-8.02545 4.27685,-2.59357 3.26144,-0.098 -3.26144,0.098 1.84651,-3.87395 3.15665,-2.04884 -3.15665,2.04884 -0.41534,-3.80269 -1.9513,-2.65677 1.9513,2.65677 0.41534,3.80269 -1.84651,3.87395 -4.27685,2.59357 0.58627,-6.90502 3.07372,-3.3712 0.84196,-3.62413 -0.74145,-2.98407 0.74145,2.98407 -0.84196,3.62413 -3.07372,3.3712 -2.36542,-4.93692 -3.65508,-2.88453 -3.08939,-0.5391 3.08939,0.5391 3.65508,2.88453 2.36542,4.93692 -0.58627,6.90502 -5.03456,8.02545 -10.20021,5.44379 -0.94451,-9.47694 1.65033,-5.83778 2.44453,-2.63084 -2.44453,2.63084 -0.40973,-4.65544 1.46862,-3.27703 -1.46862,3.27703 -1.62446,-2.75306 1.62446,2.75306 0.40973,4.65544 -1.65033,5.83778 -3.71463,-6.50424 0.64919,-5.82375 2.21544,-3.31577 -2.21544,3.31577 -1.02836,-3.35051 1.02836,3.35051 -0.64919,5.82375 -4.21816,-3.25734 -1.85674,-3.21513 -2.61066,-1.82587 2.61066,1.82587 1.85674,3.21513 -4.57089,0.10176 -3.61989,-1.63565 -3.4282,0.74086 -2.82059,-1.23502 2.82059,1.23502 3.4282,-0.74086 3.61989,1.63565 -3.27492,1.39243 3.27492,-1.39243 4.57089,-0.10176 4.21816,3.25734 3.71463,6.50424 0.94451,9.47694 -7.72188,12.80066"
           inkscape:connector-curvature="0" />
      </g>
    </pattern>
  </defs>
  <metadata
     id="metadata5">
    <rdf:RDF>
      <cc:Work
         rdf:about="">
        <dc:format>image/svg+xml</dc:format>
        <dc:type
           rdf:resource="http://purl.org/dc/dcmitype/StillImage" />
        <dc:title></dc:title>
      </cc:Work>
    </rdf:RDF>
  </metadata>
  <g
     id="layer1"
     inkscape:groupmode="layer"
     inkscape:label="Capa 1"
     transform="translate(0,99.875045)"
     style="display:inline" />
  <g
     inkscape:label="fondo"
     id="layer2"
     inkscape:groupmode="layer"
     transform="translate(0,99.875045)"
     style="display:inline">
    <g
       id="g4550"
       transform="matrix(2.4190476,0,0,1.3362796,0,-99.875045)"
       style="fill:url(#linearGradient869);fill-opacity:1">
      <rect
         id="rect3715"
         width="210"
         height="297"
         x="0"
         y="0"
         style="fill:url(#linearGradient869);fill-opacity:1;stroke-width:0.26458332"
         ry="0"
         rx="0" />
    </g>
    <path
       sodipodi:nodetypes="ccssssassscc"
       inkscape:connector-curvature="0"
       id="path15110"
       d="M 507.99999,-99.875045 508,166.27139 c 0,0 -61.38638,-27.8134 -73.39959,-50.6027 -5.62959,-10.67944 15.55486,-28.047073 7.34018,-36.661141 -18.51231,-19.412363 -60.7668,20.920305 -78.29524,0.516355 -9.47281,-11.0268 11.55101,-31.575592 4.4041,-44.406453 -9.88687,-17.74993 -45.50047,-5.649168 -53.82796,-24.268641 -8.41522,-18.8155833 24.69776,-40.909146 16.63773,-59.897077 -5.90543,-13.912064 -30.9685,23.818807 -43.06238,7.22896 -11.56816,-15.868643 8.14496,-37.071822 5.87213,-41.308328 -6.71396,-12.514701 -37.67959,-16.74741 -37.67959,-16.74741 z"
       style="fill:#782121;stroke:none;stroke-width:0.26756498px;stroke-linecap:butt;stroke-linejoin:miter;stroke-opacity:1" />
    <path
       style="fill:#de8787;fill-opacity:1;stroke:none;stroke-width:0.26458332;stroke-linecap:butt;stroke-linejoin:miter;stroke-miterlimit:4;stroke-dasharray:none;stroke-opacity:1"
       d="M 507.99999,-99.875045 508,156.33005 c 0,0 -62.35501,-26.77449 -74.55778,-48.71254 -5.71842,-10.280529 15.8003,-26.999433 7.456,-35.291741 -18.80442,-18.687255 -61.72565,20.13887 -79.53068,0.497067 -9.62228,-10.614917 11.73328,-30.396152 4.4736,-42.747744 -10.04288,-17.086919 -46.21843,-5.438154 -54.67733,-23.3621366 -8.548,-18.1127674 25.08748,-39.3810724 16.90026,-57.6597484 -5.99861,-13.392409 -31.45715,22.929105 -43.74187,6.958937 -11.75069,-15.275904 8.27348,-35.687083 5.96479,-39.765343 -6.8199,-12.047241 -38.27414,-16.121846 -38.27414,-16.121846 z"
       id="path879"
       inkscape:connector-curvature="0"
       sodipodi:nodetypes="ccssssassscc" />
    <path
       sodipodi:nodetypes="ccssssssssssscc"
       inkscape:connector-curvature="0"
       id="path15108"
       d="M 0,296.99995 V 34.548692 c 0,0 36.130022,5.876475 52.338808,12.815004 23.820678,10.19697 -2.10405,70.304654 21.323217,65.100214 20.703868,-4.59943 28.289655,-18.737632 38.769495,-8.7142 20.35963,19.47295 -44.155664,62.44189 -18.900133,73.81442 64.034613,28.83469 60.533243,-67.24477 88.200583,-41.52062 9.26731,8.61643 -5.33412,27.61259 6.30005,36.9072 6.31625,5.04611 18.76598,-6.50751 23.74631,0 16.10718,21.04633 -37.04071,54.70854 -18.90013,73.81442 5.38863,5.67536 20.29827,-5.63665 25.20017,0.51262 5.83968,7.3257 -16.59392,19.8913 -10.17699,26.65519 18.78368,19.79929 53.49162,-49.99038 73.66203,-31.7812 13.50134,12.18858 7.26926,54.84821 7.26926,54.84821 z"
       style="opacity:1;fill:#16502d;fill-opacity:1;stroke:none;stroke-width:0.26529992px;stroke-linecap:butt;stroke-linejoin:miter;stroke-opacity:1" />
    <path
       style="opacity:1;fill:#00d4aa;fill-opacity:1;stroke:none;stroke-width:0.26458332px;stroke-linecap:butt;stroke-linejoin:miter;stroke-opacity:1"
       d="M 0,296.99995 V 42.501761 c 0,0 37.058078,5.698399 53.683211,12.42667 24.432549,9.887971 -2.158096,68.174209 21.870937,63.127479 21.23568,-4.46005 29.016312,-18.169824 39.765342,-8.45013 20.8826,18.88286 -45.289863,60.54971 -19.385604,71.57762 65.679434,27.96091 62.088134,-65.20705 90.466154,-40.26242 9.50536,8.35533 -5.47114,26.77584 6.46187,35.7888 6.4785,4.89319 19.24802,-6.31031 24.35627,0 16.52092,20.40856 -37.99215,53.0507 -19.3856,71.57762 5.52704,5.50338 20.81966,-5.46585 25.84747,0.49708 5.98968,7.10371 -17.02016,19.28854 -10.4384,25.84746 19.26616,19.19931 54.86563,-48.47552 75.55415,-30.81813 13.84815,11.81922 7.45599,53.18614 7.45599,53.18614 z"
       id="path881"
       inkscape:connector-curvature="0"
       sodipodi:nodetypes="ccssssssssssscc" />
  </g>
  <g
     style="display:none;opacity:1"
     inkscape:label="diseño"
     id="layer3"
     inkscape:groupmode="layer"
     transform="translate(0,99.875045)" />
  <g
     inkscape:groupmode="layer"
     id="layer4"
     inkscape:label="src"
     style="display:none"
     transform="translate(0,99.875045)">
    <g
       style="opacity:1"
       transform="matrix(0.48653422,0,0,0.48653422,378.20923,205.42762)"
       id="g4547">
      <circle
         style="fill:#00aad4;stroke-width:0.28421116"
         id="path4537"
         cx="450.08185"
         cy="79.546165"
         r="96.751572" />
      <path
         style="fill:#ccff00;stroke-width:0.27874643"
         d="m 450.43649,-17.335932 a 95.454411,95.454411 0 0 0 -0.56023,0.0196 c 0.30046,0.276518 0.55276,0.59802 0.75947,0.965814 0.34192,0.608331 0.70821,1.105757 0.81339,1.105184 0.5794,-0.0031 1.76132,-1.015379 2.30782,-1.924547 a 95.454411,95.454411 0 0 0 -3.32045,-0.166051 z m -2.44829,0.08657 a 95.454411,95.454411 0 0 0 -6.17435,0.379465 c 0.70178,0.681208 0.78944,0.947794 0.63535,1.545084 -0.11032,0.427597 -0.21968,1.216466 -0.24337,1.753054 -0.0381,0.861412 0.0433,0.985507 0.69634,1.061087 1.01371,0.117331 1.62999,-0.827828 1.62999,-2.500552 0,-0.723392 0.10684,-1.381327 0.23792,-1.46233 0.13106,-0.08101 0.71865,0.549827 1.30553,1.401898 1.40985,2.04703 2.67741,3.013823 3.63569,2.773311 0.54732,-0.137365 0.67673,-0.298796 0.52808,-0.658212 -0.10835,-0.261874 -0.30943,-0.950288 -0.44697,-1.530384 -0.32176,-1.357435 -0.72041,-1.975885 -1.80421,-2.762421 z m 7.54846,0.168772 c 0.0543,0.255834 0.1184,0.522266 0.1911,0.76492 0.303,1.011368 0.27501,1.136311 -0.41812,1.859762 -0.83804,0.874743 -0.93776,1.490161 -0.32448,1.999134 0.64699,0.536942 0.50675,0.827911 -0.62718,1.300635 -0.57489,0.239681 -1.37821,0.67183 -1.78518,0.960913 -0.94785,0.6733442 -1.83374,0.6638622 -2.88384,-0.03158 -1.00461,-0.665341 -2.29745,-0.71618 -3.14349,-0.123584 -1.07565,0.7534152 -0.79235,1.6230992 0.98322,3.0183012 1.89569,1.489587 3.41464,3.3725579 3.41464,4.2329168 0,1.0713198 0.88045,1.8106133 2.65408,2.22779424 1.73609,0.4083471 7.85993,0.5454082 8.36784,0.1872829 0.15975,-0.112635 0.45982,-0.73163234 0.66692,-1.37522214 0.30869,-0.959202 0.31223,-1.3253268 0.0196,-2.0317998 -0.71019,-1.714557 -2.3583,-2.103901 -5.16389,-1.219516 -1.77001,0.5579445 -3.32873,0.343981 -3.79137,-0.520472 -0.27699,-0.517535 -0.21208,-0.683072 0.48454,-1.239115 1.85849,-1.483547 5.38437,-1.954576 6.93653,-0.926614 2.45644,1.626833 4.98117,-0.55561 3.05151,-2.6377472 -0.92337,-0.99632 -0.78413,-1.56495 0.53573,-2.186417 0.89253,-0.42028 1.21737,-0.826925 1.94741,-2.437945 0.0929,-0.20515 0.17706,-0.382105 0.25915,-0.550414 a 95.454411,95.454411 0 0 0 -11.37472,-1.271236 z m -20.17047,0.993583 a 95.454411,95.454411 0 0 0 -1.96212,0.321212 c 0.006,-8.1e-5 0.0112,8.7e-5 0.0174,0 0.93184,-0.01312 1.55012,-0.105016 1.94469,-0.321212 z m 33.97658,0.645146 c 0.0247,1.437571 0.58044,2.096924 2.36226,2.831563 l 1.11011,0.457863 -1.31917,1.211349 c -1.49885,1.3761822 -1.70941,2.3729742 -0.75729,3.5834172 1.1985,1.523664 3.80447,1.642322 7.05577,0.321211 2.0946,-0.851121 2.45342,-0.849665 3.47998,0.01416 1.13057,0.951295 1.96354,4.1414949 2.31708,8.8736099 0.33651,4.5036739 0.8485,6.4798969 1.9398,7.4880437 0.95754,0.8845692 1.01218,1.5287762 0.25533,3.0123122 -1.17222,2.297739 -0.35014,4.118725 1.71057,3.789211 0.95533,-0.152764 1.1203,-0.09725 1.32079,0.444794 0.34702,0.938059 -0.0636,2.25341 -1.14601,3.67107 -1.03732,1.35855 -1.51445,3.352018 -1.1569,4.836141 0.55618,2.308594 3.25268,5.936178 6.96431,9.36904 2.33363,2.158358 2.96034,2.287068 3.83385,0.787241 0.41202,-0.707416 0.59811,-1.759297 0.76438,-4.320569 0.36942,-5.691301 0.86546,-6.508488 4.16976,-6.871209 2.60473,-0.285927 3.88062,-1.160068 5.25262,-3.599205 1.06701,-1.896892 1.19176,-1.975477 4.46376,-2.817954 0.86827,-0.223557 1.71589,-0.780702 2.88653,-1.896781 1.8676,-1.780495 2.48607,-2.83253 2.96169,-5.152999 a 95.454411,95.454411 0 0 0 -48.46922,-26.032319 z m -37.44512,0.46494 c -0.43975,3.86e-4 -0.81236,0.172793 -1.00338,0.529727 -0.40904,0.764288 -0.0369,2.505249 0.63643,2.976925 0.83513,0.584946 1.50049,0.504098 2.28171,-0.277113 0.89121,-0.891217 0.86353,-1.410007 -0.13013,-2.403644 -0.54274,-0.542756 -1.21917,-0.826391 -1.78463,-0.825895 z m -4.53507,2.575683 c -1.46924,0.131095 -3.19791,2.232169 -3.61119,4.4909752 -0.16976,0.927752 -0.1205,1.082015 0.38657,1.214616 0.31934,0.08351 1.10436,0.830432 1.74434,1.659957 0.63998,0.8295257 1.58673,1.708943 2.1042,1.9544923 0.51747,0.2455494 1.33252,0.9407011 1.81076,1.544538 0.61032,0.77058124 1.00374,1.04271544 1.32079,0.91245904 0.24844,-0.1020659 0.89087,-0.3095777 1.42749,-0.46058534 2.40594,-0.6771004 5.86755,-1.9935745 6.15637,-2.3415786 0.4519,-0.5444949 0.12325,-1.5475923 -0.98106,-2.9943464 -0.52655,-0.689814 -1.14529,-1.618185 -1.37522,-2.062833 -0.49541,-0.958021 -1.22804,-1.6209742 -1.49556,-1.353445 -0.10493,0.104942 -0.25889,0.780408 -0.34187,1.500441 -0.20338,1.764583 -0.8312,1.867593 -2.21911,0.364221 -0.71112,-0.770279 -1.28586,-1.139486 -1.77481,-1.139486 -0.83499,0 -1.0209,-0.227416 -1.59245,-1.9474142 -0.3617,-1.088534 -0.53283,-1.269443 -1.26907,-1.341467 -0.0952,-0.0093 -0.19223,-0.0093 -0.29018,-5.44e-4 z m 17.57954,2.9099612 c -0.19359,0.01871 -0.42172,0.147391 -0.68871,0.378921 -1.01691,0.881994 -1.83178,0.955795 -3.854,0.348976 -1.05243,-0.315824 -1.90375,-0.44411 -1.95992,-0.295079 -0.0547,0.144931 0.85779,1.289865 2.02799,2.544107 1.17024,1.254242 2.37116,2.5628343 2.66824,2.9077822 0.67595,0.7849356 1.50175,0.8000685 2.25991,0.04192 0.51951,-0.5194935 0.57408,-0.8460319 0.4878,-2.9170382 -0.0887,-2.130559 -0.36046,-3.065713 -0.94131,-3.009589 z m 3.3956,4.6608362 c -0.4228,-0.057196 -1.27757,1.0694414 -1.28812,1.7612197 -0.0123,0.7994405 0.69975,1.4835628 1.54398,1.4835628 0.45945,0 0.67616,-0.1567105 0.6751,-0.4878065 -0.002,-0.7841854 -0.55195,-2.5434202 -0.85258,-2.7292102 -0.0239,-0.014813 -0.0501,-0.023957 -0.0783,-0.027761 z m -27.63074,3.94164824 -0.17912,1.43510896 c -0.0985,0.7893688 -0.27131,1.5838095 -0.38329,1.7650315 -0.11199,0.1812218 -0.36573,1.0274381 -0.56403,1.8804497 -0.32224,1.3861746 -0.3062,1.6774966 0.15136,2.7449994 0.28158,0.6569117 0.78952,1.3429418 1.12858,1.5243948 0.82844,0.443354 3.19413,0.190411 3.86055,-0.4126766 0.50541,-0.4573694 0.54654,-0.4560849 0.80085,0.028858 0.14738,0.2810126 0.35172,0.8875256 0.45405,1.3474564 0.32724,1.4705302 1.65558,2.6452452 2.99707,2.6502702 0.60041,0.0022 0.57269,0.07201 -0.3996,0.993577 -0.57494,0.544912 -1.04529,1.105656 -1.04529,1.246194 0,0.140541 0.51414,0.517439 1.14217,0.837873 1.49345,0.761894 1.20773,0.999761 -0.51392,0.427917 -2.06046,-0.684379 -6.06108,-1.267426 -8.73262,-1.272867 -1.75356,-0.0035 -3.00965,0.180641 -4.71799,0.691965 -3.75154,1.122897 -4.80864,1.007663 -11.50861,-1.254359 l -5.77965,-1.951228 h -4.01407 c -5.8509,0 -9.47844,0.811357 -10.72791,2.399832 -0.82498,1.048792 -0.73555,1.769299 0.53191,4.290084 0.61323,1.219677 1.11498,2.534168 1.11498,2.920847 0,0.679468 -0.0607,0.702857 -1.81185,0.702857 -1.02706,0 -1.81185,0.121165 -1.81185,0.279834 0,0.153946 1.03484,1.045319 2.29966,1.980624 1.26481,0.935311 2.34414,1.81983 2.39818,1.965926 0.16612,0.448893 -0.80041,1.303151 -2.63393,2.328511 -2.06297,1.153687 -2.90016,2.111087 -2.90016,3.316105 0,1.352041 0.69089,2.050957 3.20937,3.247505 2.36799,1.12502 3.75929,2.371419 3.75929,3.367278 0,0.924896 -0.52687,1.667106 -2.96058,4.17303 -1.52037,1.565505 -2.56624,2.92368 -3.00526,3.902451 -0.83044,1.851411 -1.16036,3.313381 -0.74803,3.313381 0.16442,0 1.46029,-0.877405 2.87947,-1.949592 1.42077,-1.07338 3.48799,-2.32935 4.6004,-2.795088 1.79614,-0.751986 2.21659,-0.825918 3.78975,-0.664744 1.69016,0.17316 1.80238,0.145904 2.50004,-0.606491 0.40169,-0.433261 1.00443,-1.483104 1.33928,-2.333413 1.19965,-3.04664 2.51876,-5.290009 3.44837,-5.864565 2.18574,-1.350858 6.87434,0.04781 9.5166,2.839187 1.10721,1.169698 3.17869,4.16916 4.00534,5.799777 1.05843,2.087758 3.47761,5.599598 5.2804,7.665526 2.94159,3.370938 3.11622,3.923345 3.37325,10.666959 0.19263,5.054583 0.29289,5.917362 0.80086,6.883186 0.42626,0.810406 0.58091,1.6178 0.58091,3.033544 0,1.469737 0.13852,2.153183 0.58201,2.870763 0.32011,0.518 0.77007,2.037812 0.99955,3.377617 0.51086,2.982502 1.03089,4.143344 2.1053,4.698954 0.75673,0.391324 0.86939,0.384623 1.38285,-0.08007 0.7042,-0.637291 0.5513,-2.126677 -0.57821,-5.625554 -0.42801,-1.325846 -0.87169,-2.78704 -0.98539,-3.246969 l -0.20632,-0.836239 0.7148,0.671277 c 0.39315,0.369199 0.79661,0.93367 0.89667,1.254364 0.31752,1.017499 2.63865,4.986168 3.83168,6.551081 1.47374,1.933101 5.4079,5.408183 8.39725,7.417822 2.86896,1.928729 5.64084,2.920848 8.1615,2.920848 1.60159,0 2.13152,0.149844 4.18989,1.184674 2.85807,1.436867 4.49303,2.823418 5.692,4.827961 1.10738,1.851488 2.05635,2.349748 4.47628,2.349748 2.54623,0 2.67485,0.21974 1.93107,3.28779 -0.32354,1.33469 -0.84131,3.30457 -1.15092,4.37773 -0.87016,3.01618 -0.77037,4.3136 0.54607,7.0977 2.66573,5.63776 2.8451,5.91402 4.94501,7.61708 1.72983,1.40288 2.0586,1.81624 2.42543,3.0515 0.95457,3.21431 0.24781,10.57519 -1.70623,17.77391 -0.65628,2.41779 -0.70323,2.93897 -0.53681,5.99304 0.17748,3.25703 0.15995,3.40511 -0.66964,5.66204 -0.4686,1.27483 -0.96014,3.09417 -1.09268,4.04237 -0.4952,3.5424 0.62133,7.14069 2.73576,8.81535 1.1702,0.92682 2.67568,1.63513 3.97922,1.98226 a 95.454411,95.454411 0 0 0 2.94369,-0.68979 c 0.0841,-0.71973 -0.41921,-1.69533 -1.32839,-2.42597 -2.02378,-1.62636 -2.039,-2.62306 -0.097,-6.36489 1.11866,-2.15532 1.14994,-2.58943 0.23791,-3.30684 -0.93977,-0.7392 -0.88047,-1.57001 0.16713,-2.34049 0.47527,-0.34955 1.0998,-1.09554 1.38774,-1.65779 0.77721,-1.51754 3.10763,-4.19522 9.056,-10.40617 2.9366,-3.06621 5.52726,-5.95123 5.75731,-6.41116 0.23005,-0.45993 0.5025,-1.38265 0.60485,-2.05031 0.37666,-2.45658 1.11005,-3.13448 4.45886,-4.1186 0.90259,-0.26525 1.98354,-0.77048 2.40201,-1.1226 0.96444,-0.81151 1.86238,-2.88429 2.0993,-4.84594 0.31139,-2.5785 0.65701,-3.64916 2.12709,-6.58702 1.6341,-3.26564 1.6313,-3.4926 -0.0714,-5.63101 -1.4122,-1.77359 -2.10936,-2.14737 -5.31905,-2.84789 -3.87888,-0.84658 -6.11413,-2.01133 -6.50262,-3.38905 -0.62461,-2.21509 -1.54765,-2.98678 -8.08364,-6.75633 -3.98469,-2.298127 -6.17014,-3.092138 -9.65759,-3.509379 -2.71988,-0.325413 -3.07851,-0.31234 -4.30263,0.155164 -0.74778,0.28558 -1.85385,1.043212 -2.51305,1.721473 -1.32929,1.367745 -1.20327,1.317405 -2.25448,0.899384 -0.43159,-0.17163 -1.4744,-0.32842 -2.31762,-0.34843 l -1.5331,-0.0364 -0.67184,-1.355606 c -0.58366,-1.177466 -0.62937,-1.472571 -0.34843,-2.24957 0.72993,-2.018521 0.17353,-2.6666 -2.28931,-2.6666 h -1.7367 l -0.45352,-2.823397 c -0.2494,-1.552819 -0.59101,-2.960894 -0.75947,-3.129374 -0.49716,-0.497162 -1.13615,0.113287 -1.71332,1.637639 -0.97935,2.586448 -2.12793,2.754138 -4.25632,0.62174 -3.31229,-3.318526 -2.53924,-6.956649 1.94741,-9.165428 1.36892,-0.673911 2.28725,-0.91616 3.85835,-1.016993 1.13397,-0.0728 2.38005,-0.05246 2.76895,0.0452 0.4473,0.112254 1.47337,1.139909 2.79237,2.796722 1.14688,1.440617 2.21807,2.701409 2.38022,2.801621 0.88502,0.546971 0.74861,-2.501955 -0.2831,-6.333316 -0.15869,-0.589408 -0.21391,-1.307083 -0.12247,-1.595171 0.0914,-0.288078 1.08987,-1.231566 2.2185,-2.09604 1.33239,-1.020512 2.16517,-1.882542 2.37482,-2.458634 0.66352,-1.823228 1.03633,-2.296515 2.27298,-2.884364 1.58054,-0.751335 2.67655,-2.024326 2.90724,-3.37708 0.53625,-3.14505 1.43209,-4.582739 3.08472,-4.949926 0.44126,-0.09808 1.58646,-0.428302 2.54464,-0.733888 1.62828,-0.519286 1.74218,-0.610458 1.74218,-1.394822 0,-0.461583 -0.25087,-1.157997 -0.5575,-1.547804 -1.23615,-1.571518 -0.44186,-2.434391 2.49673,-2.712334 3.12798,-0.295862 4.07637,-0.994258 4.58951,-3.379807 0.39005,-1.813059 -0.2075,-3.117699 -2.42323,-5.29074 -1.96686,-1.928989 -2.09204,-2.12854 -2.56153,-4.071765 -0.63215,-2.616426 -1.12704,-3.57634 -1.84344,-3.57634 -0.31019,0 -1.29453,0.515196 -2.1875,1.144928 -1.9489,1.374422 -2.38498,1.309929 -3.52081,-0.519382 -3.04313,-4.901001 -7.85142,-7.017205 -8.65639,-3.809898 -0.20991,0.83646 0.0434,2.256378 0.78671,4.406589 0.44842,1.297149 0.52925,2.009904 0.386,3.408113 -0.4558,4.44887 -2.89126,8.98263 -4.49478,8.367291 -0.6742,-0.258705 -1.27149,-1.823761 -1.51078,-3.957979 -0.35077,-3.127612 -0.73082,-3.511297 -7.11402,-7.187523 -2.53997,-1.462816 -3.77233,-2.744445 -3.77233,-3.923682 0,-0.858567 2.39697,-3.056394 6.13241,-5.622293 1.76308,-1.21107 3.83832,-2.844067 4.61128,-3.629151 2.51683,-2.556287 3.75112,-5.666283 3.75112,-9.450702 0,-1.608459 -0.072,-1.83923 -0.70395,-2.253383 -0.64659,-0.42365 -0.82303,-0.425856 -2.16029,-0.02559 -0.80092,0.239739 -2.26029,0.77161 -3.24315,1.181405 -2.16458,0.90251 -2.90955,0.822685 -5.18184,-0.554225 l -1.67248,-1.013723 -0.0714,1.057821 c -0.26443,3.910149 -1.43526,4.733293 -4.87316,3.426622 -2.05327,-0.780407 -2.70777,-0.710542 -5.22977,0.557492 -2.52965,1.271889 -3.15372,1.356289 -3.83549,0.519383 -0.50902,-0.624888 -1.56181,-1.631291 -2.46135,-2.353013 -0.50227,-0.402983 -0.49545,-0.409384 0.12195,-0.108884 0.55994,0.272511 0.94807,0.169866 2.68893,-0.713744 2.00655,-1.018476 2.04606,-1.026122 2.84954,-0.551503 0.73213,0.432503 0.95403,0.441638 2.18913,0.09419 1.1819,-0.33248 1.38669,-0.494933 1.46396,-1.161806 0.0684,-0.590644 -0.18247,-1.070618 -1.05238,-2.014379 -1.67371,-1.815755 -2.80052,-3.7229132 -2.80052,-4.739778 0,-0.4870861 0.24065,-1.4347851 0.53462,-2.1058432 0.29393,-0.6710576 0.61992,-1.8049981 0.72462,-2.5196064 0.16984,-1.1593685 0.12379,-1.3347233 -0.42899,-1.6305577 -1.51156,-0.8089626 -3.91439,0.6245915 -4.42128,2.6377471 -0.17563,0.697422 -0.43898,1.2679696 -0.58529,1.2679696 -0.71325,0 -4.30922,-2.7024528 -5.69306,-4.2786494 -1.44482,-1.64568446 -1.68756,-1.80476846 -3.26276,-2.13905246 -0.9359,-0.1986568 -2.4701,-0.3726979 -3.4096,-0.3865656 z m 29.53132,0.6299024 c -0.61893,0.021017 -1.22033,0.4448983 -1.55923,1.26306956 -0.34544,0.8339797 -0.42843,5.8077252 -0.10561,6.3300491 0.26815,0.4338564 0.97564,-0.026975 1.44217,-0.9396807 0.24519,-0.479681 0.86772,-1.3432036 1.3834,-1.9185595 1.05413,-1.1760902 1.2027,-2.2313995 0.50467,-3.58123793 -0.40995,-0.79274753 -1.04645,-1.17465533 -1.6654,-1.15364053 z m -4.80674,1.09810793 c -0.62971,0.010011 -1.75604,0.65534613 -2.00022,1.25599313 -0.14303,0.3518589 -0.51769,1.0160095 -0.83242,1.4759406 -1.01038,1.4765506 -0.72232,2.7436485 1.06433,4.6815241 0.91755,0.995217 2.20899,0.956867 2.75536,-0.082212 0.23713,-0.4509398 0.31501,-1.2379082 0.22049,-2.2299719 -0.26885,-2.8226332 -0.60156,-4.7383499 -0.86782,-4.99838123 -0.0754,-0.073684 -0.19439,-0.1052054 -0.33972,-0.1028982 z M 463.74554,1.458231 c -0.83401,0.006 -2.10634,0.046903 -4.10281,0.1132409 -2.97623,0.098895 -3.20986,0.1498941 -4.30314,0.9418589 -0.63583,0.4605853 -1.38477,1.2629969 -1.66432,1.7835418 -0.98986,1.8432202 -0.0191,6.0528064 1.76939,7.6715164 1.01169,0.915628 3.21278,1.308029 6.07144,1.081774 l 2.47822,-0.196537 1.62786,1.741075 c 0.89513,0.957414 2.50531,2.676575 3.57852,3.820786 3.09726,3.30226 6.68933,5.623983 8.72333,5.637538 0.62103,0.0041 1.15165,-0.226671 1.63709,-0.712107 0.61042,-0.610425 0.69486,-0.889902 0.56404,-1.865207 -0.18523,-1.380941 -1.3776,-2.510617 -4.02549,-3.813165 l -1.74217,-0.856928 v -1.827094 c 0,-2.20853 -0.2538,-2.739281 -1.65018,-3.451666 -1.72859,-0.881852 -3.82426,-3.4705486 -5.34028,-6.5962734 C 466.61431,3.3786855 465.80907,1.95201 465.57752,1.7598441 465.30671,1.5350809 465.13549,1.4483057 463.74554,1.458231 Z m -15.09861,7.004593 c -0.33923,0.02708 -0.64727,0.371104 -0.92714,1.0316898 -0.63559,1.5001642 -0.62321,3.3992172 0.0256,3.8735942 0.73887,0.540272 1.71474,0.465688 2.36062,-0.180204 h 5.7e-4 c 0.70818,-0.708213 0.71206,-1.944096 0.009,-3.2540395 C 449.57142,8.918586 449.08357,8.428861 448.64726,8.462824 Z m 20.5004,13.60359 c -0.34179,0.01824 -0.63316,0.142623 -0.86619,0.375654 -1.09511,1.095118 0.35273,5.400555 2.52561,7.509277 1.52213,1.477159 4.50028,3.183873 5.72082,3.278538 0.27761,0.02152 0.28808,-0.103605 0.0463,-0.555316 -0.24848,-0.464266 -0.19036,-0.864794 0.28474,-1.96919 0.74447,-1.730546 0.44234,-2.987688 -0.92062,-3.830044 -0.49113,-0.303526 -1.20471,-0.88929 -1.58538,-1.302267 -0.38065,-0.412977 -1.41939,-1.361604 -2.30891,-2.10802 -1.14921,-0.964359 -2.1444,-1.438763 -2.89635,-1.398632 z m -7.60455,62.53502 c -0.11596,0.0043 -0.22808,0.01391 -0.33971,0.02887 -1.91443,0.256777 -2.92402,1.867931 -1.17054,1.867931 0.75713,0 1.7614,0.461352 3.34551,1.536374 0.64692,0.438996 1.41269,0.693601 2.08517,0.693601 0.59247,0 2.02398,0.416619 3.23605,0.941856 3.43162,1.487037 3.99795,1.583151 5.03868,0.854213 1.46517,-1.026244 0.31788,-2.200718 -3.14351,-3.218112 -1.07318,-0.315428 -3.36801,-1.081061 -5.09967,-1.701327 -2.15195,-0.770805 -3.14028,-1.030763 -3.95198,-1.003382 z"
         id="path3749"
         inkscape:connector-curvature="0" />
    </g>
    <circle
       style="opacity:1;fill:#00aad4;stroke-width:0.07491614"
       id="circle4539"
       cx="703.1369"
       cy="191.6161"
       r="25.503059" />
    <path
       style="opacity:1;fill:#ccff00;stroke-width:0.07347567"
       d="m 703.23038,166.07864 a 25.161137,25.161137 0 0 0 -0.14767,0.005 c 0.0792,0.0729 0.1457,0.15763 0.20019,0.25458 0.0901,0.16036 0.18668,0.29147 0.2144,0.29132 0.15273,-7.9e-4 0.46427,-0.26764 0.60833,-0.5073 a 25.161137,25.161137 0 0 0 -0.87525,-0.0438 z m -0.64535,0.0228 a 25.161137,25.161137 0 0 0 -1.62752,0.10003 c 0.18498,0.17956 0.20809,0.24983 0.16747,0.40727 -0.0291,0.11271 -0.0579,0.32065 -0.0641,0.46209 -0.01,0.22707 0.0114,0.25977 0.18355,0.2797 0.26721,0.0309 0.42966,-0.21821 0.42966,-0.65913 0,-0.19068 0.0282,-0.36411 0.0627,-0.38546 0.0345,-0.0214 0.18943,0.14493 0.34413,0.36953 0.37163,0.53958 0.70575,0.79442 0.95834,0.73103 0.14427,-0.0362 0.17839,-0.0788 0.1392,-0.1735 -0.0286,-0.069 -0.0816,-0.25049 -0.11782,-0.4034 -0.0848,-0.35781 -0.18989,-0.52083 -0.47557,-0.72816 z m 1.98972,0.0445 c 0.0143,0.0674 0.0312,0.13767 0.0504,0.20163 0.0799,0.26659 0.0725,0.29952 -0.11021,0.49022 -0.2209,0.23058 -0.24719,0.3928 -0.0855,0.52696 0.17054,0.14153 0.13357,0.21823 -0.16532,0.34284 -0.15154,0.0632 -0.36329,0.17709 -0.47056,0.25329 -0.24985,0.17749 -0.48337,0.17499 -0.76016,-0.008 -0.26481,-0.17538 -0.6056,-0.18878 -0.82861,-0.0326 -0.28353,0.19859 -0.20886,0.42784 0.25917,0.7956 0.49969,0.39265 0.90008,0.88898 0.90008,1.11577 0,0.28239 0.23208,0.47727 0.6996,0.58723 0.45762,0.10764 2.07182,0.14377 2.2057,0.0494 0.0421,-0.0297 0.12121,-0.19285 0.1758,-0.3625 0.0814,-0.25283 0.0823,-0.34934 0.005,-0.53556 -0.1872,-0.45195 -0.62163,-0.55458 -1.36116,-0.32146 -0.46656,0.14707 -0.87743,0.0907 -0.99938,-0.13719 -0.073,-0.13642 -0.0559,-0.18006 0.12772,-0.32663 0.48989,-0.39105 1.41928,-0.51521 1.82842,-0.24425 0.6475,0.42883 1.31301,-0.14645 0.80436,-0.69529 -0.24339,-0.26262 -0.20669,-0.41251 0.14121,-0.57632 0.23527,-0.11079 0.3209,-0.21798 0.51333,-0.64263 0.0245,-0.0541 0.0467,-0.10072 0.0683,-0.14508 a 25.161137,25.161137 0 0 0 -2.9983,-0.33509 z m -5.3168,0.2619 a 25.161137,25.161137 0 0 0 -0.5172,0.0847 c 0.002,-2e-5 0.003,3e-5 0.005,0 0.24563,-0.003 0.40861,-0.0277 0.51261,-0.0847 z m 8.956,0.17006 c 0.007,0.37893 0.153,0.55273 0.62267,0.74638 l 0.29262,0.12069 -0.34772,0.3193 c -0.39509,0.36276 -0.45059,0.6255 -0.19962,0.94457 0.31592,0.40163 1.00283,0.4329 1.85985,0.0847 0.55212,-0.22435 0.64671,-0.22397 0.9173,0.004 0.29801,0.25075 0.51758,1.09167 0.61077,2.33902 0.0887,1.18714 0.22366,1.70806 0.51132,1.9738 0.2524,0.23317 0.2668,0.40298 0.0673,0.79402 -0.30899,0.60567 -0.0923,1.08567 0.45089,0.99881 0.25182,-0.0403 0.29531,-0.0257 0.34816,0.11725 0.0915,0.24727 -0.0168,0.59398 -0.30208,0.96767 -0.27344,0.3581 -0.3992,0.88357 -0.30496,1.27477 0.14661,0.60853 0.85739,1.56474 1.83575,2.46962 0.61513,0.56893 0.78032,0.60285 1.01058,0.20751 0.1086,-0.18647 0.15765,-0.46374 0.20148,-1.13887 0.0974,-1.50019 0.22813,-1.7156 1.09912,-1.81121 0.68659,-0.0754 1.02291,-0.30578 1.38456,-0.94872 0.28125,-0.50001 0.31414,-0.52073 1.17661,-0.7428 0.22887,-0.0589 0.4523,-0.20579 0.76087,-0.49998 0.49229,-0.46932 0.65532,-0.74663 0.78069,-1.35829 a 25.161137,25.161137 0 0 0 -12.77616,-6.86195 z m -9.87028,0.12255 c -0.11592,1.1e-4 -0.21414,0.0455 -0.26449,0.13964 -0.10782,0.20146 -0.01,0.66036 0.16776,0.7847 0.22014,0.15418 0.39552,0.13287 0.60144,-0.073 0.23492,-0.23492 0.22762,-0.37167 -0.0343,-0.63359 -0.14306,-0.14307 -0.32136,-0.21783 -0.47041,-0.2177 z m -1.19542,0.67894 c -0.38728,0.0345 -0.84294,0.58838 -0.95188,1.18379 -0.0448,0.24455 -0.0318,0.28521 0.10189,0.32016 0.0842,0.022 0.29111,0.2189 0.4598,0.43755 0.1687,0.21866 0.41825,0.45047 0.55465,0.5152 0.13641,0.0647 0.35125,0.24796 0.47731,0.40713 0.16087,0.20312 0.26458,0.27485 0.34815,0.24051 0.0655,-0.0269 0.23483,-0.0816 0.37628,-0.1214 0.63419,-0.17848 1.54664,-0.5255 1.62277,-0.61723 0.11912,-0.14352 0.0325,-0.40793 -0.2586,-0.78929 -0.13879,-0.18183 -0.30189,-0.42654 -0.3625,-0.54375 -0.13058,-0.25252 -0.3237,-0.42727 -0.39422,-0.35675 -0.0276,0.0277 -0.0682,0.2057 -0.0901,0.3955 -0.0536,0.46513 -0.2191,0.49229 -0.58494,0.096 -0.18745,-0.20304 -0.33895,-0.30036 -0.46783,-0.30036 -0.2201,0 -0.2691,-0.0599 -0.41976,-0.51332 -0.0953,-0.28694 -0.14045,-0.33462 -0.33452,-0.35361 -0.0251,-0.002 -0.0507,-0.002 -0.0765,-1.4e-4 z m 4.63385,0.76704 c -0.051,0.005 -0.11116,0.0389 -0.18154,0.0999 -0.26805,0.23249 -0.48284,0.25194 -1.01589,0.092 -0.27741,-0.0833 -0.50181,-0.11706 -0.51662,-0.0778 -0.0144,0.0382 0.22611,0.34 0.53457,0.67061 0.30846,0.33061 0.62502,0.67555 0.70333,0.76647 0.17817,0.20691 0.39585,0.21089 0.59569,0.011 0.13694,-0.13693 0.15133,-0.22301 0.12858,-0.76891 -0.0234,-0.5616 -0.095,-0.8081 -0.24812,-0.7933 z m 0.89506,1.22857 c -0.11145,-0.0151 -0.33676,0.2819 -0.33954,0.46424 -0.003,0.21073 0.18445,0.39106 0.40698,0.39106 0.12111,0 0.17823,-0.0413 0.17795,-0.12858 -5.2e-4,-0.20671 -0.14549,-0.67043 -0.22473,-0.7194 -0.006,-0.004 -0.0132,-0.006 -0.0206,-0.007 z m -7.28328,1.03899 -0.0472,0.37828 c -0.026,0.20808 -0.0715,0.41749 -0.10104,0.46525 -0.0295,0.0478 -0.0964,0.27083 -0.14867,0.49568 -0.0849,0.36539 -0.0807,0.44218 0.0399,0.72356 0.0742,0.17316 0.20811,0.35399 0.29748,0.40182 0.21837,0.11687 0.84195,0.0502 1.01762,-0.10878 0.13322,-0.12056 0.14406,-0.12022 0.2111,0.008 0.0388,0.0741 0.0927,0.23395 0.11968,0.35518 0.0863,0.38762 0.4364,0.69727 0.79001,0.6986 0.15826,5.2e-4 0.15096,0.019 -0.10533,0.2619 -0.15155,0.14363 -0.27553,0.29144 -0.27553,0.32849 0,0.037 0.13552,0.13639 0.30106,0.22085 0.39367,0.20083 0.31835,0.26353 -0.13546,0.1128 -0.54313,-0.1804 -1.59766,-0.33409 -2.30186,-0.33552 -0.46223,-0.001 -0.79333,0.0476 -1.24363,0.1824 -0.98888,0.29598 -1.26753,0.26561 -3.03359,-0.33064 l -1.52348,-0.51433 h -1.05808 c -1.54226,0 -2.49846,0.21386 -2.82781,0.63258 -0.21746,0.27645 -0.19388,0.46637 0.14021,1.13083 0.16164,0.3215 0.2939,0.66799 0.2939,0.76992 0,0.1791 -0.016,0.18527 -0.47759,0.18527 -0.27073,0 -0.47759,0.0319 -0.47759,0.0738 0,0.0406 0.27278,0.27554 0.60617,0.52208 0.3334,0.24654 0.6179,0.47969 0.63215,0.5182 0.0438,0.11833 -0.21098,0.3435 -0.69429,0.61378 -0.54378,0.30411 -0.76446,0.55647 -0.76446,0.87411 0,0.35638 0.18211,0.54061 0.84597,0.85601 0.62418,0.29655 0.99092,0.62509 0.99092,0.8876 0,0.24379 -0.13888,0.43944 -0.78039,1.09998 -0.40076,0.41265 -0.67644,0.77066 -0.79216,1.02866 -0.2189,0.48802 -0.30587,0.87338 -0.19718,0.87338 0.0433,0 0.38492,-0.23127 0.75901,-0.5139 0.3745,-0.28293 0.91941,-0.614 1.21263,-0.73676 0.47345,-0.19822 0.58428,-0.21771 0.99896,-0.17522 0.44551,0.0456 0.47509,0.0385 0.65899,-0.15987 0.10588,-0.1142 0.26476,-0.39094 0.35302,-0.61507 0.31622,-0.80308 0.66393,-1.39441 0.90897,-1.54586 0.57615,-0.35608 1.81203,0.0126 2.50851,0.74839 0.29186,0.30832 0.83788,1.09896 1.05578,1.52878 0.279,0.55032 0.91668,1.47602 1.39188,2.02058 0.77538,0.88856 0.82142,1.03417 0.88917,2.81174 0.0508,1.33235 0.0772,1.55978 0.2111,1.81436 0.11236,0.21362 0.15312,0.42644 0.15312,0.79962 0,0.38741 0.0365,0.56757 0.15342,0.75672 0.0844,0.13654 0.20298,0.53715 0.26347,0.89031 0.13466,0.78617 0.27174,1.09216 0.55494,1.23861 0.19947,0.10316 0.22917,0.10139 0.36451,-0.0211 0.18563,-0.16798 0.14532,-0.56057 -0.15241,-1.48285 -0.11282,-0.34949 -0.22977,-0.73465 -0.25974,-0.85588 l -0.0544,-0.22043 0.18842,0.17695 c 0.10363,0.0973 0.20998,0.24611 0.23636,0.33064 0.0837,0.2682 0.69553,1.31432 1.01,1.72682 0.38847,0.50955 1.42549,1.42556 2.21346,1.95528 0.75624,0.5084 1.48689,0.76992 2.15132,0.76992 0.42217,0 0.56185,0.0395 1.10442,0.31227 0.75337,0.37875 1.18434,0.74424 1.50038,1.27262 0.29189,0.48804 0.54204,0.61938 1.17991,0.61938 0.67117,0 0.70508,0.0579 0.50902,0.86664 -0.0853,0.35181 -0.22176,0.87106 -0.30337,1.15394 -0.22937,0.79504 -0.20307,1.13703 0.14394,1.8709 0.70266,1.48608 0.74995,1.5589 1.30347,2.00781 0.45597,0.36979 0.54263,0.47875 0.63932,0.80436 0.25162,0.84727 0.0653,2.78755 -0.44975,4.68508 -0.17299,0.63732 -0.18536,0.77469 -0.1415,1.57973 0.0468,0.85853 0.0422,0.89756 -0.17651,1.49247 -0.12352,0.33604 -0.25308,0.8156 -0.28802,1.06554 -0.13053,0.93376 0.16378,1.88224 0.72113,2.32367 0.30845,0.2443 0.70529,0.43101 1.04889,0.52251 a 25.161137,25.161137 0 0 0 0.77594,-0.18182 c 0.0222,-0.18972 -0.1105,-0.44688 -0.35016,-0.63947 -0.53345,-0.4287 -0.53746,-0.69142 -0.0256,-1.67774 0.29487,-0.56813 0.30311,-0.68256 0.0627,-0.87166 -0.24772,-0.19485 -0.23209,-0.41385 0.044,-0.61694 0.12528,-0.0921 0.2899,-0.28878 0.3658,-0.43698 0.20487,-0.40002 0.81915,-1.10584 2.3871,-2.743 0.77407,-0.80823 1.45695,-1.5687 1.51759,-1.68994 0.0606,-0.12123 0.13245,-0.36446 0.15943,-0.54045 0.0993,-0.64753 0.2926,-0.82622 1.17533,-1.08563 0.23791,-0.0699 0.52285,-0.2031 0.63315,-0.29591 0.25422,-0.21391 0.49091,-0.76028 0.55336,-1.27736 0.0821,-0.67967 0.17319,-0.96189 0.56069,-1.73629 0.43074,-0.8608 0.43,-0.92063 -0.0188,-1.4843 -0.37225,-0.46751 -0.55601,-0.56603 -1.40207,-0.75068 -1.02244,-0.22316 -1.61164,-0.53018 -1.71404,-0.89333 -0.16465,-0.58389 -0.40795,-0.7873 -2.1308,-1.78093 -1.05033,-0.60577 -1.6264,-0.81506 -2.54567,-0.92505 -0.71694,-0.0858 -0.81148,-0.0823 -1.13415,0.0409 -0.19711,0.0753 -0.48866,0.27499 -0.66242,0.45377 -0.35039,0.36053 -0.31717,0.34726 -0.59426,0.23707 -0.11377,-0.0452 -0.38865,-0.0866 -0.61091,-0.0918 l -0.40412,-0.01 -0.17709,-0.35732 c -0.15385,-0.31038 -0.1659,-0.38816 -0.0918,-0.59298 0.1924,-0.53206 0.0457,-0.70289 -0.60345,-0.70289 h -0.45778 l -0.11955,-0.74423 c -0.0657,-0.40932 -0.15578,-0.78047 -0.20019,-0.82488 -0.13105,-0.13105 -0.29948,0.0299 -0.45162,0.43167 -0.25815,0.68177 -0.56091,0.72597 -1.12194,0.16388 -0.87309,-0.87474 -0.66932,-1.83372 0.51333,-2.41594 0.36084,-0.17764 0.6029,-0.2415 1.01703,-0.26807 0.29891,-0.0192 0.62737,-0.0138 0.72988,0.0119 0.1179,0.0296 0.38837,0.30047 0.73605,0.73719 0.30231,0.37974 0.58467,0.71208 0.62741,0.73849 0.23328,0.14418 0.19733,-0.6595 -0.0746,-1.66942 -0.0418,-0.15536 -0.0564,-0.34454 -0.0323,-0.42047 0.0241,-0.0759 0.28729,-0.32464 0.58479,-0.55251 0.3512,-0.269 0.57072,-0.49622 0.62598,-0.64808 0.1749,-0.48059 0.27317,-0.60534 0.59914,-0.76029 0.41662,-0.19805 0.70552,-0.5336 0.76633,-0.89018 0.14135,-0.82901 0.37749,-1.20798 0.81311,-1.30477 0.11632,-0.0259 0.41818,-0.11289 0.67075,-0.19344 0.42921,-0.13688 0.45923,-0.16092 0.45923,-0.36767 0,-0.12167 -0.0661,-0.30524 -0.14695,-0.40799 -0.32584,-0.41424 -0.11647,-0.64169 0.65812,-0.71495 0.82451,-0.078 1.0745,-0.26208 1.20976,-0.8909 0.10282,-0.47791 -0.0547,-0.8218 -0.63874,-1.3946 -0.51846,-0.50847 -0.55145,-0.56107 -0.67521,-1.07329 -0.16663,-0.68967 -0.29708,-0.9427 -0.48591,-0.9427 -0.0818,0 -0.34123,0.1358 -0.57661,0.3018 -0.51372,0.36228 -0.62867,0.34528 -0.92807,-0.13691 -0.80215,-1.29187 -2.06958,-1.84969 -2.28176,-1.00426 -0.0553,0.22048 0.0114,0.59476 0.20737,1.16154 0.1182,0.34192 0.13951,0.5298 0.10175,0.89836 -0.12015,1.17269 -0.76212,2.36776 -1.1848,2.20556 -0.17771,-0.0682 -0.33515,-0.48073 -0.39823,-1.0433 -0.0925,-0.82441 -0.19264,-0.92555 -1.87521,-1.89458 -0.66952,-0.38559 -0.99436,-0.72342 -0.99436,-1.03425 0,-0.22632 0.63183,-0.80565 1.61646,-1.482 0.46474,-0.31923 1.01176,-0.74968 1.21551,-0.95662 0.66342,-0.67382 0.98877,-1.4936 0.98877,-2.49114 0,-0.42398 -0.019,-0.48481 -0.18556,-0.59398 -0.17044,-0.11167 -0.21694,-0.11225 -0.56944,-0.007 -0.21111,0.0632 -0.59579,0.20339 -0.85487,0.31141 -0.57057,0.23789 -0.76694,0.21685 -1.3659,-0.14609 l -0.44085,-0.26721 -0.0188,0.27883 c -0.0697,1.03069 -0.37833,1.24767 -1.28454,0.90324 -0.54122,-0.20571 -0.71374,-0.18729 -1.37853,0.14695 -0.6668,0.33526 -0.8313,0.35751 -1.01101,0.1369 -0.13417,-0.16471 -0.41168,-0.42999 -0.64879,-0.62023 -0.1324,-0.10623 -0.1306,-0.10791 0.0321,-0.0287 0.1476,0.0718 0.24991,0.0448 0.70879,-0.18814 0.52891,-0.26846 0.53932,-0.27048 0.75112,-0.14537 0.19298,0.114 0.25147,0.11641 0.57704,0.0248 0.31154,-0.0876 0.36552,-0.13047 0.38589,-0.30625 0.018,-0.15569 -0.0481,-0.28221 -0.2774,-0.53098 -0.44118,-0.47862 -0.7382,-0.98133 -0.7382,-1.24937 0,-0.12839 0.0634,-0.3782 0.14092,-0.55509 0.0775,-0.17688 0.16341,-0.47578 0.19101,-0.66415 0.0448,-0.3056 0.0326,-0.35182 -0.11308,-0.4298 -0.39844,-0.21324 -1.03181,0.16464 -1.16542,0.69529 -0.0463,0.18384 -0.11572,0.33423 -0.15428,0.33423 -0.18801,0 -1.13588,-0.71235 -1.50065,-1.12782 -0.38085,-0.4338 -0.44483,-0.47573 -0.86005,-0.56384 -0.24669,-0.0524 -0.6511,-0.0982 -0.89874,-0.1019 z m 7.78426,0.16604 c -0.16315,0.006 -0.32167,0.11727 -0.411,0.33293 -0.0911,0.21983 -0.11294,1.53088 -0.0278,1.66856 0.0707,0.11436 0.25717,-0.007 0.38014,-0.24769 0.0646,-0.12644 0.22873,-0.35406 0.36466,-0.50572 0.27786,-0.31001 0.31702,-0.58818 0.13303,-0.94399 -0.10806,-0.20896 -0.27584,-0.30963 -0.43899,-0.30409 z m -1.26703,0.28945 c -0.16598,0.003 -0.46288,0.17275 -0.52724,0.33107 -0.0377,0.0927 -0.13646,0.26782 -0.21942,0.38905 -0.26633,0.38921 -0.1904,0.72321 0.28055,1.23402 0.24186,0.26233 0.58227,0.25222 0.72629,-0.0217 0.0625,-0.11887 0.083,-0.32631 0.0581,-0.58781 -0.0709,-0.74403 -0.15856,-1.24899 -0.22875,-1.31754 -0.0199,-0.0194 -0.0512,-0.0277 -0.0895,-0.0271 z m 4.82744,0.16317 c -0.21983,0.002 -0.55521,0.0124 -1.08147,0.0299 -0.78451,0.0261 -0.8461,0.0395 -1.13428,0.24827 -0.1676,0.1214 -0.36501,0.33291 -0.4387,0.47013 -0.26092,0.48586 -0.005,1.59547 0.4664,2.02216 0.26667,0.24135 0.84687,0.34478 1.60039,0.28515 l 0.65324,-0.0518 0.42909,0.45893 c 0.23595,0.25237 0.66039,0.70553 0.94328,1.00713 0.81641,0.87046 1.76326,1.48245 2.29941,1.48602 0.1637,0.001 0.30357,-0.0597 0.43152,-0.18771 0.16091,-0.1609 0.18317,-0.23457 0.14868,-0.49165 -0.0488,-0.36401 -0.36312,-0.66178 -1.06109,-1.00513 l -0.45922,-0.22588 v -0.48161 c 0,-0.58215 -0.0669,-0.72205 -0.43498,-0.90983 -0.45565,-0.23245 -1.00805,-0.91482 -1.40766,-1.73873 -0.19842,-0.40907 -0.41067,-0.78514 -0.47171,-0.83579 -0.0714,-0.0592 -0.11651,-0.0821 -0.4829,-0.0795 z m -3.97989,1.84636 c -0.0894,0.007 -0.17061,0.0978 -0.24438,0.27195 -0.16754,0.39543 -0.16428,0.89601 0.007,1.02105 0.19476,0.14241 0.452,0.12275 0.62225,-0.0475 h 1.5e-4 c 0.18667,-0.18668 0.18769,-0.51245 0.002,-0.85774 -0.14344,-0.26762 -0.27203,-0.39671 -0.38704,-0.38776 z m 5.40377,3.58582 c -0.0901,0.005 -0.1669,0.0376 -0.22832,0.099 -0.28867,0.28866 0.093,1.42355 0.66573,1.97939 0.40123,0.38937 1.18625,0.83925 1.50797,0.8642 0.0732,0.006 0.0759,-0.0273 0.0122,-0.14638 -0.0655,-0.12237 -0.0502,-0.22795 0.0751,-0.51906 0.19624,-0.45616 0.1166,-0.78754 -0.24267,-1.00957 -0.12946,-0.08 -0.31755,-0.23441 -0.41789,-0.34327 -0.10034,-0.10886 -0.37414,-0.35891 -0.60862,-0.55566 -0.30292,-0.2542 -0.56525,-0.37925 -0.76345,-0.36867 z m -2.00451,16.48381 c -0.0306,10e-4 -0.0601,0.004 -0.0895,0.008 -0.50463,0.0677 -0.77075,0.49237 -0.30855,0.49237 0.19957,0 0.46429,0.12161 0.88185,0.40498 0.17053,0.11571 0.37238,0.18282 0.54964,0.18282 0.15617,0 0.53351,0.10982 0.853,0.24827 0.90455,0.39198 1.05383,0.41731 1.32816,0.22517 0.38621,-0.27051 0.0838,-0.5801 -0.8286,-0.84828 -0.28289,-0.0831 -0.88779,-0.28496 -1.34424,-0.44845 -0.56724,-0.20318 -0.82776,-0.27171 -1.04172,-0.26449 z"
       id="path4541"
       inkscape:connector-curvature="0" />
    <path
       sodipodi:nodetypes="sssss"
       inkscape:connector-curvature="0"
       id="path4720"
       d="m 286.12797,186.88501 c 0,3.84211 -4.76248,1.04094 -7.99971,4.99856 -3.45642,4.22559 -9.76517,-2.08401 -9.76517,-5.92613 0,-3.84211 6.19841,-3.65874 10.20653,-7.78127 3.58475,-3.68706 7.55835,4.86672 7.55835,8.70884 z"
       style="opacity:1;fill:#217867;fill-opacity:1;stroke:#ffffff;stroke-width:0;stroke-miterlimit:4;stroke-dasharray:none;stroke-opacity:1" />
    <path
       sodipodi:nodetypes="sssss"
       inkscape:connector-curvature="0"
       id="path4724"
       d="m 353.78572,55.270703 c 0,5.293236 -6.34061,9.32317 -12.45829,9.171079 -5.32895,-0.132483 -12.86612,-3.749823 -12.86612,-9.043059 0,-5.293237 4.38695,-9.949369 12.6166,-9.929333 7.92431,0.01929 12.70781,4.50808 12.70781,9.801313 z"
       style="opacity:1;fill:#217867;fill-opacity:1;stroke:#ffffff;stroke-width:0;stroke-miterlimit:4;stroke-dasharray:none;stroke-opacity:1" />
    <path
       sodipodi:nodetypes="sssss"
       inkscape:connector-curvature="0"
       id="path4726"
       d="m 309.82791,106.81857 c 0,4.74906 -6.28242,1.28667 -10.5528,6.1785 -4.55954,5.22307 -12.88172,-2.57596 -12.88172,-7.32502 0,-4.74907 8.17662,-4.52241 13.46394,-9.618083 4.72881,-4.55741 9.97058,6.015543 9.97058,10.764603 z"
       style="opacity:1;fill:#d5ffe6;fill-opacity:1;stroke:#ffffff;stroke-width:0;stroke-miterlimit:4;stroke-dasharray:none;stroke-opacity:1" />
  </g>
</svg>
